REM DIRINDEX 1\2,1\3,1\4
REM DIRNAME folder01,folder02,folder03,folder04
TITLE ""
FILE "DISC1Track12.mp3" MP3
  TRACK 01 AUDIO
    TITLE "0:"
    INDEX 01 00:00:00
  TRACK 02 AUDIO
    TITLE "4:cjc105_0845"
    INDEX 01 00:00:11
  TRACK 03 AUDIO
    TITLE "0:"
    INDEX 01 00:06:37
  TRACK 04 AUDIO
    TITLE "2:cjc105_0846"
    INDEX 01 00:07:13
  TRACK 05 AUDIO
    TITLE "2:cjc105_0847"
    INDEX 01 00:10:39
  TRACK 06 AUDIO
    TITLE "2:cjc105_0848"
    INDEX 01 00:13:57
  TRACK 07 AUDIO
    TITLE "2:cjc105_0849"
    INDEX 01 00:16:46
  TRACK 08 AUDIO
    TITLE "2:cjc105_0850"
    INDEX 01 00:19:65
  TRACK 09 AUDIO
    TITLE "2:cjc105_0851"
    INDEX 01 00:23:12
  TRACK 10 AUDIO
    TITLE "2:cjc105_0852"
    INDEX 01 00:26:11
  TRACK 11 AUDIO
    TITLE "2:cjc105_0853"
    INDEX 01 00:28:68
  TRACK 12 AUDIO
    TITLE "2:cjc105_0854"
    INDEX 01 00:32:25
  TRACK 13 AUDIO
    TITLE "2:cjc105_0855"
    INDEX 01 00:35:64
  TRACK 14 AUDIO
    TITLE "2:cjc105_0856"
    INDEX 01 00:38:59
  TRACK 15 AUDIO
    TITLE "2:cjc105_0857"
    INDEX 01 00:41:47
  TRACK 16 AUDIO
    TITLE "2:cjc105_0858"
    INDEX 01 00:44:65
  TRACK 17 AUDIO
    TITLE "2:cjc105_0859"
    INDEX 01 00:48:38
  TRACK 18 AUDIO
    TITLE "2:cjc105_0860"
    INDEX 01 00:51:46
  TRACK 19 AUDIO
    TITLE "2:cjc105_0861"
    INDEX 01 00:55:16
  TRACK 20 AUDIO
    TITLE "2:cjc105_0862"
    INDEX 01 00:58:17
  TRACK 21 AUDIO
    TITLE "2:cjc105_0863"
    INDEX 01 01:01:09
  TRACK 22 AUDIO
    TITLE "2:cjc105_0864"
    INDEX 01 01:04:00
  TRACK 23 AUDIO
    TITLE "2:cjc105_0865"
    INDEX 01 01:07:21
  TRACK 24 AUDIO
    TITLE "2:cjc105_0866"
    INDEX 01 01:10:12
  TRACK 25 AUDIO
    TITLE "2:cjc105_0867"
    INDEX 01 01:13:06
  TRACK 26 AUDIO
    TITLE "2:cjc105_0868"
    INDEX 01 01:16:40
  TRACK 27 AUDIO
    TITLE "2:cjc105_0869"
    INDEX 01 01:19:42
  TRACK 28 AUDIO
    TITLE "2:cjc105_0870"
    INDEX 01 01:22:72
  TRACK 29 AUDIO
    TITLE "2:cjc105_0871"
    INDEX 01 01:25:57
  TRACK 30 AUDIO
    TITLE "2:cjc105_0872"
    INDEX 01 01:28:41
  TRACK 31 AUDIO
    TITLE "2:cjc105_0873"
    INDEX 01 01:31:63
  TRACK 32 AUDIO
    TITLE "2:cjc105_0874"
    INDEX 01 01:34:61
  TRACK 33 AUDIO
    TITLE "2:cjc105_0875"
    INDEX 01 01:37:56
  TRACK 34 AUDIO
    TITLE "2:cjc105_0876"
    INDEX 01 01:40:50
  TRACK 35 AUDIO
    TITLE "2:cjc105_0877"
    INDEX 01 01:43:60
  TRACK 36 AUDIO
    TITLE "2:cjc105_0878"
    INDEX 01 01:46:68
  TRACK 37 AUDIO
    TITLE "2:cjc105_0879"
    INDEX 01 01:50:25
  TRACK 38 AUDIO
    TITLE "2:cjc105_0880"
    INDEX 01 01:53:59
  TRACK 39 AUDIO
    TITLE "2:cjc105_0881"
    INDEX 01 01:57:00
  TRACK 40 AUDIO
    TITLE "2:cjc105_0882"
    INDEX 01 02:00:06
  TRACK 41 AUDIO
    TITLE "2:cjc105_0883"
    INDEX 01 02:04:39
  TRACK 42 AUDIO
    TITLE "2:cjc105_0884"
    INDEX 01 02:07:69
  TRACK 43 AUDIO
    TITLE "2:cjc105_0885"
    INDEX 01 02:10:49
  TRACK 44 AUDIO
    TITLE "2:cjc105_0886"
    INDEX 01 02:13:52
  TRACK 45 AUDIO
    TITLE "2:cjc105_0887"
    INDEX 01 02:16:30
  TRACK 46 AUDIO
    TITLE "2:cjc105_0888"
    INDEX 01 02:19:33
  TRACK 47 AUDIO
    TITLE "2:cjc105_0889"
    INDEX 01 02:23:01
  TRACK 48 AUDIO
    TITLE "2:cjc105_0890"
    INDEX 01 02:26:07
  TRACK 49 AUDIO
    TITLE "2:cjc105_0891"
    INDEX 01 02:29:58
  TRACK 50 AUDIO
    TITLE "2:cjc105_0892"
    INDEX 01 02:33:01
  TRACK 51 AUDIO
    TITLE "2:cjc105_0893"
    INDEX 01 02:35:71
  TRACK 52 AUDIO
    TITLE "2:cjc105_0894"
    INDEX 01 02:39:51
  TRACK 53 AUDIO
    TITLE "2:cjc105_0895"
    INDEX 01 02:42:65
  TRACK 54 AUDIO
    TITLE "2:cjc105_0896"
    INDEX 01 02:45:65
  TRACK 55 AUDIO
    TITLE "2:cjc105_0897"
    INDEX 01 02:49:22
  TRACK 56 AUDIO
    TITLE "2:cjc105_0898"
    INDEX 01 02:52:63
  TRACK 57 AUDIO
    TITLE "2:cjc105_0899"
    INDEX 01 02:56:10
  TRACK 58 AUDIO
    TITLE "2:cjc105_0900"
    INDEX 01 03:00:14
  TRACK 59 AUDIO
    TITLE "2:cjc105_0901"
    INDEX 01 03:03:53
  TRACK 60 AUDIO
    TITLE "2:cjc105_0902"
    INDEX 01 03:06:71
  TRACK 61 AUDIO
    TITLE "2:cjc105_0903"
    INDEX 01 03:10:14
  TRACK 62 AUDIO
    TITLE "2:cjc105_0904"
    INDEX 01 03:13:03
  TRACK 63 AUDIO
    TITLE "2:cjc105_0905"
    INDEX 01 03:16:01
  TRACK 64 AUDIO
    TITLE "2:cjc105_0906"
    INDEX 01 03:19:07
  TRACK 65 AUDIO
    TITLE "2:cjc105_0907"
    INDEX 01 03:23:29
  TRACK 66 AUDIO
    TITLE "2:cjc105_0908"
    INDEX 01 03:26:23
  TRACK 67 AUDIO
    TITLE "2:cjc105_0909"
    INDEX 01 03:29:49
  TRACK 68 AUDIO
    TITLE "2:cjc105_0910"
    INDEX 01 03:33:47
  TRACK 69 AUDIO
    TITLE "2:cjc105_0911"
    INDEX 01 03:36:69
  TRACK 70 AUDIO
    TITLE "2:cjc105_0912"
    INDEX 01 03:40:21
  TRACK 71 AUDIO
    TITLE "2:cjc105_0913"
    INDEX 01 03:43:22
  TRACK 72 AUDIO
    TITLE "2:cjc105_0914"
    INDEX 01 03:47:12
  TRACK 73 AUDIO
    TITLE "2:cjc105_0915"
    INDEX 01 03:50:35
  TRACK 74 AUDIO
    TITLE "2:cjc105_0916"
    INDEX 01 03:53:32
  TRACK 75 AUDIO
    TITLE "2:cjc105_0917"
    INDEX 01 03:56:38
  TRACK 76 AUDIO
    TITLE "2:cjc105_0918"
    INDEX 01 03:59:62
  TRACK 77 AUDIO
    TITLE "2:cjc105_0919"
    INDEX 01 04:03:07
  TRACK 78 AUDIO
    TITLE "2:cjc105_0920"
    INDEX 01 04:06:05
  TRACK 79 AUDIO
    TITLE "2:cjc105_0921"
    INDEX 01 04:09:11
  TRACK 80 AUDIO
    TITLE "2:cjc105_0922"
    INDEX 01 04:11:71
  TRACK 81 AUDIO
    TITLE "2:cjc105_0923"
    INDEX 01 04:15:20
  TRACK 82 AUDIO
    TITLE "2:cjc105_0924"
    INDEX 01 04:18:22
  TRACK 83 AUDIO
    TITLE "2:cjc105_0925"
    INDEX 01 04:22:33
  TRACK 84 AUDIO
    TITLE "2:cjc105_0926"
    INDEX 01 04:25:30
  TRACK 85 AUDIO
    TITLE "2:cjc105_0927"
    INDEX 01 04:29:00
  TRACK 86 AUDIO
    TITLE "2:cjc105_0928"
    INDEX 01 04:31:62
  TRACK 87 AUDIO
    TITLE "2:cjc105_0929"
    INDEX 01 04:35:38
  TRACK 88 AUDIO
    TITLE "2:cjc105_0930"
    INDEX 01 04:38:29
  TRACK 89 AUDIO
    TITLE "2:cjc105_0931"
    INDEX 01 04:42:71
  TRACK 90 AUDIO
    TITLE "2:cjc105_0932"
    INDEX 01 04:45:72
  TRACK 91 AUDIO
    TITLE "2:cjc105_0933"
    INDEX 01 04:49:03
  TRACK 92 AUDIO
    TITLE "2:cjc105_0934"
    INDEX 01 04:53:01
  TRACK 93 AUDIO
    TITLE "2:cjc105_0935"
    INDEX 01 04:57:22
  TRACK 94 AUDIO
    TITLE "2:cjc105_0936"
    INDEX 01 05:01:26
  TRACK 95 AUDIO
    TITLE "2:cjc105_0937"
    INDEX 01 05:04:46
  TRACK 96 AUDIO
    TITLE "2:cjc105_0938"
    INDEX 01 05:08:28
  TRACK 97 AUDIO
    TITLE "2:cjc105_0939"
    INDEX 01 05:12:35
  TRACK 98 AUDIO
    TITLE "2:cjc105_0940"
    INDEX 01 05:16:33
  TRACK 99 AUDIO
    TITLE "2:cjc105_0941"
    INDEX 01 05:19:22
  TRACK 100 AUDIO
    TITLE "0:"
    INDEX 01 05:22:04
